<?xml version="1.0" encoding="iso-8859-1"?>
<!-- Uploaded to: SVGRepo, www.svgrepo.com, Transformed by: SVGRepo Tools -->
<svg fill="#000000" version="1.1" id="Layer_1" xmlns="http://www.w3.org/2000/svg" xmlns:xlink="http://www.w3.org/1999/xlink" 
	 viewBox="0 0 512 512" xml:space="preserve">
<g>
	<g>
		<path d="M511.584,341.018l-25.591-140.792c-2.219-12.177-12.817-21.026-25.19-21.026h-102.4c-12.373,0-22.972,8.849-25.182,21.026
			l-25.6,140.8c-1.357,7.467,0.666,15.155,5.53,20.983c4.864,5.828,12.066,9.19,19.652,9.19h16.358l9.327,117.231
			c1.058,13.303,12.16,23.569,25.515,23.569h51.2c13.355,0,24.465-10.266,25.523-23.569l9.318-117.231h16.358
			c7.595,0,14.788-3.371,19.652-9.199S512.941,348.493,511.584,341.018z M446.398,345.6l-11.196,140.8h-51.2l-11.196-140.8h-40.004
			l25.6-140.8h38.4v77.875c0,7.074,5.726,12.8,12.8,12.8c7.074,0,12.8-5.726,12.8-12.8V204.8h38.4l25.6,140.8H446.398z"/>
	</g>
</g>
<g>
	<g>
		<path d="M409.603,0c-42.351,0-76.8,34.449-76.8,76.8c0,42.351,34.458,76.8,76.8,76.8c42.351,0,76.8-34.449,76.8-76.8
			C486.403,34.449,451.954,0,409.603,0z M409.603,128c-28.279,0-51.2-22.921-51.2-51.2s22.921-51.2,51.2-51.2
			c28.279,0,51.2,22.921,51.2,51.2S437.882,128,409.603,128z"/>
	</g>
</g>
<g>
	<g>
		<rect x="0.003" y="486.4" width="332.8" height="25.6"/>
	</g>
</g>
<g>
	<g>
		<rect x="25.602" y="409.6" width="25.6" height="51.2"/>
	</g>
</g>
<g>
	<g>
		<rect x="76.803" y="384" width="25.6" height="76.8"/>
	</g>
</g>
<g>
	<g>
		<rect x="128.003" y="332.8" width="25.6" height="128"/>
	</g>
</g>
<g>
	<g>
		<rect x="179.203" y="281.6" width="25.6" height="179.2"/>
	</g>
</g>
<g>
	<g>
		<rect x="230.403" y="179.2" width="25.6" height="281.6"/>
	</g>
</g>
<g>
</g>
<g>
</g>
<g>
</g>
<g>
</g>
<g>
</g>
<g>
</g>
<g>
</g>
<g>
</g>
<g>
</g>
<g>
</g>
<g>
</g>
<g>
</g>
<g>
</g>
<g>
</g>
<g>
</g>
</svg>
